<svg width="23" height="22" viewBox="0 0 23 22" fill="none" xmlns="http://www.w3.org/2000/svg">
<g clip-path="url(#clip0)">
<path fill-rule="evenodd" clip-rule="evenodd" d="M11.4989 0C5.14939 0 0 5.04944 0 11.2794C0 16.2617 3.29479 20.4893 7.86528 21.9806C8.44065 22.0838 8.65033 21.7362 8.65033 21.4371C8.65033 21.1692 8.64044 20.4602 8.6348 19.5192C5.43602 20.2005 4.7611 18.0071 4.7611 18.0071C4.23798 16.7041 3.48399 16.3572 3.48399 16.3572C2.43985 15.6572 3.56306 15.6718 3.56306 15.6718C4.71733 15.7514 5.32447 16.8342 5.32447 16.8342C6.35026 18.5575 8.01636 18.0604 8.67151 17.7717C8.77599 17.0426 9.07321 16.5455 9.40149 16.2637C6.84797 15.9792 4.16314 15.0112 4.16314 10.6895C4.16314 9.45844 4.61144 8.45174 5.34706 7.66313C5.22846 7.37788 4.83382 6.23131 5.46002 4.67833C5.46002 4.67833 6.4258 4.37507 8.62209 5.83459C9.53915 5.58464 10.5233 5.45932 11.5011 5.45517C12.4774 5.45932 13.4616 5.58464 14.38 5.83459C16.5756 4.37507 17.5393 4.67833 17.5393 4.67833C18.1669 6.23131 17.7722 7.37788 17.6536 7.66313C18.3907 8.45174 18.8354 9.45844 18.8354 10.6895C18.8354 15.0223 16.1464 15.9757 13.5844 16.2547C13.9974 16.603 14.3652 17.2912 14.3652 18.3436C14.3652 19.8516 14.3511 21.0681 14.3511 21.4378C14.3511 21.7397 14.5579 22.09 15.1418 21.9799C19.7073 20.4858 22.9993 16.261 22.9993 11.2801C23 5.04944 17.8506 0 11.4989 0Z" fill="#F3FAF9"/>
</g>
<defs>
<clipPath id="clip0">
<rect width="23" height="22" fill="white"/>
</clipPath>
</defs>
</svg>
