<svg width="55" height="49" viewBox="0 0 55 49" fill="none" xmlns="http://www.w3.org/2000/svg">
<g clip-path="url(#clip0)">
<path d="M0 48.97V7.22244e-06H20.9518V27.9829C20.9518 39.5738 11.5714 48.97 0 48.97ZM49.0931 19.5839L29.7873 0.0551883C29.716 -0.0174842 29.5994 -0.0185253 29.5266 0.0528978C21.3486 8.1083 21.2382 21.2793 29.2801 29.4711L48.5857 48.9998L48.8484 48.741C56.9541 40.7572 57.0634 27.703 49.0931 19.5839Z" fill="white"/>
<path fill-rule="evenodd" clip-rule="evenodd" d="M53.3683 4.52285C53.3683 6.64607 51.647 8.36728 49.5238 8.36728C47.4006 8.36728 45.6794 6.64607 45.6794 4.52285C45.6794 2.39964 47.4006 0.678428 49.5238 0.678428C51.647 0.678428 53.3683 2.39964 53.3683 4.52285ZM54.0467 4.52285C54.0467 7.02076 52.0217 9.04571 49.5238 9.04571C47.0259 9.04571 45.001 7.02076 45.001 4.52285C45.001 2.02495 47.0259 0 49.5238 0C52.0217 0 54.0467 2.02495 54.0467 4.52285ZM48.8072 6.8501H48.0853V2.1942H49.9164C50.4329 2.1942 50.8378 2.36714 51.1019 2.65979C51.319 2.91254 51.4423 3.25841 51.4423 3.66413V3.67744C51.4423 4.44233 51.0373 4.90127 50.4681 5.08751L51.5773 6.8501H50.7204L49.711 5.22718H48.8072V6.8501ZM48.8072 2.93915V4.50219H49.8636C50.38 4.50219 50.7087 4.19624 50.7087 3.724V3.71069C50.7087 3.21185 50.3918 2.93915 49.8577 2.93915H48.8072Z" fill="white"/>
</g>
<defs>
<clipPath id="clip0">
<rect width="55" height="49" fill="white"/>
</clipPath>
</defs>
</svg>
