<svg width="148" height="50" viewBox="0 0 148 50" fill="none" xmlns="http://www.w3.org/2000/svg">
<path d="M39.662 0V28.2561C39.662 38.1207 31.6305 46.1467 21.759 46.1467C11.8876 46.1467 3.85603 38.1207 3.85603 28.2561V0H0V28.2561C0 40.2455 9.76127 50 21.759 50C33.7568 50 43.5181 40.2455 43.5181 28.2561V0H39.662Z" fill="white"/>
<path d="M74.5373 30.1384C74.35 29.9017 74.1462 29.6815 73.9369 29.4723C73.8708 29.4062 73.8047 29.3402 73.7386 29.2741C73.5788 29.12 73.4191 28.9769 73.2483 28.8392C73.1271 28.7402 73.0059 28.6466 72.8847 28.553C72.7415 28.4484 72.5983 28.3438 72.4496 28.2447C72.3063 28.1511 72.1576 28.0631 72.0089 27.975C71.9428 27.9365 71.8767 27.9034 71.8106 27.8649C71.2542 27.5621 70.6703 27.3199 70.0643 27.1383C70.0588 27.1383 70.0478 27.1328 70.0423 27.1328C69.2215 26.8906 68.3622 26.7529 67.4753 26.7529C67.1613 26.7529 66.8528 26.7749 66.5443 26.8025C66.3736 26.819 66.2138 26.852 66.0485 26.874C65.6024 26.9456 65.1672 27.0502 64.743 27.1878C64.5447 27.2484 64.3464 27.3144 64.1481 27.3915C64.1481 27.3915 64.1481 27.3915 64.1426 27.3915C62.7048 27.964 61.4158 28.8888 60.4132 30.1384L46.1349 47.9739C45.9146 48.2491 45.7879 48.5739 45.7383 48.9042H50.327L63.4209 32.5495C63.5476 32.3898 63.6798 32.2412 63.8231 32.1036L65.4701 30.0448C66.0265 29.3512 66.7096 28.7787 67.4698 28.3438C67.8499 28.5585 68.2079 28.8117 68.544 29.0925C68.566 29.109 68.5825 29.131 68.6045 29.153C68.7478 29.2796 68.891 29.4062 69.0232 29.5439C69.1774 29.7035 69.3262 29.8686 69.4694 30.0448L71.1165 32.1036C71.2597 32.2412 71.3919 32.3898 71.5186 32.5495L84.6126 48.9042H89.2013C89.1517 48.5739 89.0305 48.2546 88.8046 47.9739L74.5373 30.1384Z" fill="white"/>
<path d="M74.5371 18.6722L88.8155 0.836728C89.0193 0.583508 89.135 0.297259 89.1956 0H84.5463L71.5239 16.2667C71.3972 16.4263 71.265 16.5749 71.1218 16.7125L69.4747 18.7713C68.9183 19.4649 68.2353 20.0374 67.4751 20.4723C66.7149 20.0374 66.0318 19.4649 65.4755 18.7713L63.8284 16.7125C63.6852 16.5749 63.5529 16.4263 63.4262 16.2667L50.4149 0H45.7656C45.8207 0.297259 45.9419 0.583508 46.1457 0.836728L60.4241 18.6722C61.5919 20.131 63.1563 21.1549 64.897 21.6724C64.9411 21.6834 64.9797 21.6944 65.0237 21.7109C65.2441 21.7714 65.4699 21.832 65.6958 21.876C65.8115 21.8981 65.9217 21.9146 66.0373 21.9366C66.2081 21.9641 66.3789 21.9971 66.5551 22.0137C66.8526 22.0467 67.1501 22.0632 67.453 22.0632C67.4641 22.0632 67.4696 22.0632 67.4806 22.0632C67.7946 22.0632 68.1031 22.0412 68.406 22.0137C68.5768 21.9971 68.7421 21.9641 68.9073 21.9421C69.0285 21.9201 69.1497 21.9036 69.2709 21.8815C69.4967 21.8375 69.7116 21.7825 69.9319 21.7219C69.9815 21.7109 70.0256 21.6944 70.0751 21.6834C70.323 21.6063 70.5709 21.5237 70.8133 21.4301C72.2511 20.8466 73.5401 19.9218 74.5371 18.6722Z" fill="white"/>
<path d="M135.881 0V28.2561C135.881 38.1207 127.849 46.1467 117.978 46.1467C108.106 46.1467 100.075 38.1207 100.075 28.2561V0H96.2188V28.2561C96.2188 40.2455 105.98 50 117.978 50C129.976 50 139.737 40.2455 139.737 28.2561V0H135.881Z" fill="white"/>
<path d="M148.001 0H144.145V48.899H148.001V0Z" fill="white"/>
</svg>
