<svg width="64" height="70" viewBox="0 0 64 70" fill="none" xmlns="http://www.w3.org/2000/svg">
<g clip-path="url(#clip0)">
<path d="M41.1309 42.5212C40.8889 42.2141 40.6256 41.9284 40.3552 41.657C40.2697 41.5712 40.1843 41.4855 40.0989 41.3998C39.8925 41.1998 39.6861 41.0141 39.4655 40.8355C39.3089 40.707 39.1523 40.5855 38.9958 40.4641C38.8107 40.3284 38.6257 40.1927 38.4335 40.0641C38.2484 39.9427 38.0563 39.8284 37.8641 39.7141C37.7787 39.6641 37.6933 39.6213 37.6079 39.5713C36.889 39.1784 36.1346 38.8641 35.3517 38.6284C35.3446 38.6284 35.3304 38.6213 35.3232 38.6213C34.2628 38.307 33.1525 38.1284 32.0066 38.1284C31.6009 38.1284 31.2024 38.157 30.8038 38.1927C30.5831 38.2141 30.3767 38.257 30.1632 38.2856C29.5867 38.3784 29.0245 38.5141 28.4764 38.6927C28.2202 38.7713 27.964 38.857 27.7078 38.957C27.7078 38.957 27.7078 38.957 27.7007 38.957C25.8431 39.6998 24.1776 40.8998 22.8823 42.5212L4.43432 65.6639C4.14963 66.021 3.98593 66.4425 3.92188 66.871H9.85056L26.7683 45.6498C26.932 45.4426 27.1028 45.2498 27.2879 45.0712L29.4159 42.3998C30.1348 41.4998 31.0173 40.757 31.9995 40.1927C32.4906 40.4713 32.9532 40.7998 33.3874 41.1641C33.4158 41.1855 33.4372 41.2141 33.4656 41.2427C33.6507 41.407 33.8357 41.5712 34.0066 41.7498C34.2058 41.957 34.398 42.1712 34.5831 42.3998L36.7111 45.0712C36.8962 45.2498 37.067 45.4426 37.2307 45.6498L54.1484 66.871H60.0771C60.013 66.4425 59.8565 66.0282 59.5647 65.6639L41.1309 42.5212Z" fill="white"/>
<path d="M41.1325 27.6429L59.5804 4.50026C59.8437 4.17169 59.9932 3.80026 60.0715 3.41455H54.0645L37.2393 24.5215C37.0756 24.7287 36.9048 24.9215 36.7198 25.1001L34.5917 27.7715C33.8728 28.6715 32.9903 29.4143 32.0081 29.9786C31.0259 29.4143 30.1434 28.6715 29.4246 27.7715L27.2965 25.1001C27.1114 24.9215 26.9406 24.7287 26.7769 24.5215L9.96595 3.41455H3.95898C4.03016 3.80026 4.18673 4.17169 4.45007 4.50026L22.898 27.6429C24.4069 29.5358 26.4282 30.8643 28.6772 31.5358C28.7342 31.55 28.784 31.5643 28.8409 31.5858C29.1256 31.6643 29.4174 31.7429 29.7092 31.8C29.8587 31.8286 30.0011 31.85 30.1505 31.8786C30.3712 31.9143 30.5918 31.9572 30.8195 31.9786C31.2039 32.0215 31.5882 32.0429 31.9797 32.0429C31.9939 32.0429 32.001 32.0429 32.0152 32.0429C32.4209 32.0429 32.8195 32.0143 33.2109 31.9786C33.4316 31.9572 33.6451 31.9143 33.8586 31.8858C34.0152 31.8572 34.1718 31.8357 34.3284 31.8072C34.6202 31.75 34.8977 31.6786 35.1824 31.6C35.2465 31.5858 35.3034 31.5643 35.3675 31.55C35.6877 31.45 36.008 31.3429 36.3212 31.2215C38.1788 30.4643 39.8442 29.2643 41.1325 27.6429Z" fill="white"/>
<path fill-rule="evenodd" clip-rule="evenodd" d="M63.5848 0H0.414062V70H63.5848V0ZM58.4634 5.12195H5.53659V64.878H58.4634V5.12195Z" fill="white"/>
</g>
<defs>
<clipPath id="clip0">
<rect width="63.1707" height="70" fill="white" transform="translate(0.414062)"/>
</clipPath>
</defs>
</svg>
