<svg width="24" height="24" viewBox="0 0 24 24" fill="none" xmlns="http://www.w3.org/2000/svg">
<path fill-rule="evenodd" clip-rule="evenodd" d="M7 3C9.08695 3 10.925 4.06548 12 5.68215C13.0749 4.06548 14.913 3 16.9999 3C20.3136 3 22.9999 5.68629 22.9999 9C22.9999 10.7924 22.1864 12.5564 21.1052 14.129C20.0138 15.7165 18.5779 17.2124 17.1726 18.4899C16.1101 19.4558 15.0501 20.3105 14.1425 21H9.85743C8.94986 20.3105 7.88982 19.4558 6.82733 18.4899C5.42204 17.2124 3.98612 15.7165 2.89471 14.129C1.81351 12.5564 1 10.7924 1 9C1 5.68629 3.68629 3 7 3ZM7 5C9.2024 5 10.9891 6.77995 11 8.97978L10.9999 9H12.9999L13 8.97978C13.0109 6.77995 14.7975 5 16.9999 5C19.2091 5 20.9999 6.79086 20.9999 9C20.9999 10.2076 20.4384 11.5686 19.4571 12.996C18.486 14.4085 17.172 15.7876 15.8272 17.0101C14.4869 18.2285 13.1423 19.2679 12.1305 20.0038L12 20.0984L11.8694 20.0038C10.8576 19.2679 9.51298 18.2285 8.17267 17.0101C6.82796 15.7876 5.51388 14.4085 4.54279 12.996C3.56149 11.5686 3 10.2076 3 9C3 6.79086 4.79086 5 7 5Z" fill="#F4F2ED"/>
</svg>
