<svg width="24" height="24" viewBox="0 0 24 24" fill="none" xmlns="http://www.w3.org/2000/svg">
<path fill-rule="evenodd" clip-rule="evenodd" d="M12 3C11.4477 3 11 3.44772 11 4C11 4.55228 11.4477 5 12 5C12.5523 5 13 4.55228 13 4C13 3.44772 12.5523 3 12 3ZM9 4C9 2.34315 10.3431 1 12 1C13.6569 1 15 2.34315 15 4C15 5.65685 13.6569 7 12 7C10.3431 7 9 5.65685 9 4Z" fill="#F4F2ED"/>
<path fill-rule="evenodd" clip-rule="evenodd" d="M13.7387 14H11.3037L17.5537 23H19.9887L13.7387 14Z" fill="#F4F2ED"/>
<path fill-rule="evenodd" clip-rule="evenodd" d="M10.2496 14H12.6846L6.43457 23H3.99961L10.2496 14Z" fill="#F4F2ED"/>
<path fill-rule="evenodd" clip-rule="evenodd" d="M11 12V9H13V12H11Z" fill="#F4F2ED"/>
<path d="M19 10L21 8H3L5 10H19Z" fill="#F4F2ED"/>
</svg>
