<svg width="24" height="24" viewBox="0 0 24 24" fill="none" xmlns="http://www.w3.org/2000/svg">
<path fill-rule="evenodd" clip-rule="evenodd" d="M19 9H12V7H21V23H8V13H10V21H19V9Z" fill="#F4F2ED"/>
<path d="M16.3334 16H13.6875V16.0065L19.7754 23H21V21.3607L16.3334 16Z" fill="#F4F2ED"/>
<path d="M16.3334 14H13.6875V13.9935L19.7754 7H21V8.63935L16.3334 14Z" fill="#F4F2ED"/>
<path d="M12.6666 16H15.3125V16.0065L9.22456 23H8V21.3607L12.6666 16Z" fill="#F4F2ED"/>
<path d="M12.6666 14H15.3125V13.9934L12.2685 10.4967L12 13L12.6666 14Z" fill="#F4F2ED"/>
<path fill-rule="evenodd" clip-rule="evenodd" d="M11 3H5V12H11V3ZM3 1V11L6 14H13V4L10 1H3Z" fill="#F4F2ED"/>
</svg>
