<svg width="24" height="24" viewBox="0 0 24 24" fill="none" xmlns="http://www.w3.org/2000/svg">
<path fill-rule="evenodd" clip-rule="evenodd" d="M4.56559 7.41293C3.5885 8.05155 2.72423 8.75262 2 9.42963V14.5704C2.72423 15.2474 3.5885 15.9484 4.56559 16.5871C6.58037 17.9039 9.14449 19 12.0002 19C14.8559 19 17.42 17.9039 19.4348 16.5871C20.4117 15.9486 21.2758 15.2476 22 14.5707V9.42927C21.2758 8.75237 20.4117 8.05144 19.4348 7.41293C17.42 6.09609 14.8559 5 12.0002 5C9.14449 5 6.58037 6.09609 4.56559 7.41293ZM2.28877 12C3.04592 11.1325 4.21006 10.0346 5.6598 9.08707C7.47002 7.90391 9.6559 7 12.0002 7C14.3445 7 16.5304 7.90391 18.3406 9.08707C19.7903 10.0346 20.9545 11.1325 21.7116 12C20.9545 12.8675 19.7903 13.9654 18.3406 14.9129C16.5304 16.0961 14.3445 17 12.0002 17C9.6559 17 7.47002 16.0961 5.6598 14.9129C4.21006 13.9654 3.04592 12.8675 2.28877 12Z" fill="#F4F2ED"/>
<path fill-rule="evenodd" clip-rule="evenodd" d="M12 9C10.3431 9 9 10.3431 9 12C9 13.6569 10.3431 15 12 15C13.6569 15 15 13.6569 15 12C15 10.3431 13.6569 9 12 9ZM7 12C7 9.23858 9.23858 7 12 7C14.7614 7 17 9.23858 17 12C17 14.7614 14.7614 17 12 17C9.23858 17 7 14.7614 7 12Z" fill="#F4F2ED"/>
</svg>
