<svg width="24" height="24" viewBox="0 0 24 24" fill="none" xmlns="http://www.w3.org/2000/svg">
<path fill-rule="evenodd" clip-rule="evenodd" d="M1 2H11V22H1V2ZM3 4V20H9V4H3Z" fill="#F4F2ED"/>
<path fill-rule="evenodd" clip-rule="evenodd" d="M23 13L23 22L10 22L10 20L21 20L21 15L19 15L19 13L23 13Z" fill="#F4F2ED"/>
<path fill-rule="evenodd" clip-rule="evenodd" d="M16.0001 3.58582L22.4143 10L10.7072 21.7071L9.29297 20.2929L19.5859 10L16.0001 6.41424L12.2072 10.2071L10.793 8.79292L16.0001 3.58582Z" fill="#F4F2ED"/>
<path d="M7 18C7 18.5523 6.55228 19 6 19C5.44772 19 5 18.5523 5 18C5 17.4477 5.44772 17 6 17C6.55228 17 7 17.4477 7 18Z" fill="#F4F2ED"/>
</svg>
