<svg width="24" height="24" viewBox="0 0 24 24" fill="none" xmlns="http://www.w3.org/2000/svg">
<path fill-rule="evenodd" clip-rule="evenodd" d="M12 3C7.02944 3 3 7.02944 3 12C3 16.9706 7.02944 21 12 21C16.9706 21 21 16.9706 21 12C21 7.02944 16.9706 3 12 3ZM1 12C1 5.92487 5.92487 1 12 1C18.0751 1 23 5.92487 23 12C23 18.0751 18.0751 23 12 23C5.92487 23 1 18.0751 1 12Z" fill="black"/>
<path fill-rule="evenodd" clip-rule="evenodd" d="M16 18H8V16H16V18Z" fill="black"/>
<path d="M11 11V17H13V11L11 9H8V11H11Z" fill="black"/>
<path d="M13 6.5C13 7.32843 12.3284 8 11.5 8C10.6716 8 10 7.32843 10 6.5C10 5.67157 10.6716 5 11.5 5C12.3284 5 13 5.67157 13 6.5Z" fill="black"/>
</svg>
